<svg width="69" height="16" viewBox="0 0 69 16" fill="none" xmlns="http://www.w3.org/2000/svg">
<path d="M10.9625 13.9512C9.80162 15.0912 8.38439 15.6612 6.71085 15.6612C5.03731 15.6612 3.62008 15.0912 2.45916 13.9512C1.31331 12.7962 0.740387 11.3862 0.740387 9.72117C0.740387 8.05617 1.31331 6.65367 2.45916 5.51367C3.62008 4.35867 5.03731 3.78117 6.71085 3.78117C8.38439 3.78117 9.80162 4.35867 10.9625 5.51367C12.1235 6.65367 12.7039 8.05617 12.7039 9.72117C12.7039 11.3862 12.1235 12.7962 10.9625 13.9512ZM4.51716 11.9487C5.10516 12.5337 5.83639 12.8262 6.71085 12.8262C7.58531 12.8262 8.31654 12.5337 8.90454 11.9487C9.49254 11.3637 9.78654 10.6212 9.78654 9.72117C9.78654 8.82117 9.49254 8.07867 8.90454 7.49367C8.31654 6.90867 7.58531 6.61617 6.71085 6.61617C5.83639 6.61617 5.10516 6.90867 4.51716 7.49367C3.94423 8.07867 3.65777 8.82117 3.65777 9.72117C3.65777 10.6212 3.94423 11.3637 4.51716 11.9487ZM22.2194 4.09617H25.1368V15.3462H22.2194V14.0862C21.5108 15.1362 20.3875 15.6612 18.8497 15.6612C17.6134 15.6612 16.5882 15.2487 15.774 14.4237C14.9749 13.5987 14.5754 12.4587 14.5754 11.0037V4.09617H17.4928V10.6437C17.4928 11.3937 17.6963 11.9712 18.1034 12.3762C18.5105 12.7662 19.0532 12.9612 19.7317 12.9612C20.4855 12.9612 21.0886 12.7287 21.5409 12.2637C21.9932 11.7987 22.2194 11.1012 22.2194 10.1712V4.09617ZM34.0958 3.78117C35.3321 3.78117 36.3498 4.19367 37.1488 5.01867C37.963 5.84367 38.3701 6.98367 38.3701 8.43867V15.3462H35.4527V8.79867C35.4527 8.04867 35.2491 7.47867 34.8421 7.08867C34.435 6.68367 33.8922 6.48117 33.2138 6.48117C32.4599 6.48117 31.8568 6.71367 31.4045 7.17867C30.9522 7.64367 30.7261 8.34117 30.7261 9.27117V15.3462H27.8087V4.09617H30.7261V5.35617C31.4347 4.30617 32.5579 3.78117 34.0958 3.78117ZM47.3292 6.88617H44.7737V11.5662C44.7737 11.9562 44.8717 12.2412 45.0677 12.4212C45.2637 12.6012 45.5502 12.7062 45.9271 12.7362C46.304 12.7512 46.7714 12.7437 47.3292 12.7137V15.3462C45.324 15.5712 43.9068 15.3837 43.0775 14.7837C42.2634 14.1837 41.8563 13.1112 41.8563 11.5662V6.88617H39.8888V4.09617H41.8563V1.82367L44.7737 0.946167V4.09617H47.3292V6.88617ZM51.498 10.9137C51.89 12.3237 52.9529 13.0287 54.6868 13.0287C55.8025 13.0287 56.6468 12.6537 57.2197 11.9037L59.5717 13.2537C58.456 14.8587 56.8126 15.6612 54.6416 15.6612C52.772 15.6612 51.2719 15.0987 50.1411 13.9737C49.0103 12.8487 48.4449 11.4312 48.4449 9.72117C48.4449 8.02617 49.0028 6.61617 50.1185 5.49117C51.2342 4.35117 52.6665 3.78117 54.4154 3.78117C56.0739 3.78117 57.4383 4.35117 58.5088 5.49117C59.5943 6.63117 60.1371 8.04117 60.1371 9.72117C60.1371 10.0962 60.0994 10.4937 60.024 10.9137H51.498ZM51.4528 8.66367H57.2197C57.0539 7.89867 56.7071 7.32867 56.1794 6.95367C55.6668 6.57867 55.0788 6.39117 54.4154 6.39117C53.6314 6.39117 52.9831 6.59367 52.4705 6.99867C51.9579 7.38867 51.6186 7.94367 51.4528 8.66367ZM65.091 6.03117C65.3624 5.31117 65.8072 4.77117 66.4253 4.41117C67.0586 4.05117 67.7596 3.87117 68.5286 3.87117V7.11117C67.639 7.00617 66.8399 7.18617 66.1313 7.65117C65.4378 8.11617 65.091 8.88867 65.091 9.96867V15.3462H62.1736V4.09617H65.091V6.03117Z" fill="black" fill-opacity="0.3"/>
</svg>
